<svg xmlns="http://www.w3.org/2000/svg" viewBox="0 0 64 64">
  <defs>
    <linearGradient id="tile" x2="1" y2="1"><stop stop-color="#d90025"/><stop offset="1" stop-color="#d90025"/></linearGradient>
    <linearGradient id="mint" x2="1" y2="1"><stop stop-color="#ffffff"/><stop offset="1" stop-color="#ffffff"/></linearGradient>
  </defs>
  <rect x="1" y="1" width="62" height="62" rx="18" fill="url(#tile)" stroke="#ffffff66"/>
  <g fill="none" stroke="url(#mint)" stroke-linecap="round" stroke-linejoin="round">
    <path d="M15 25v-6a4 4 0 0 1 4-4h6m14 0h6a4 4 0 0 1 4 4v6M49 39v6a4 4 0 0 1-4 4h-6m-14 0h-6a4 4 0 0 1-4-4v-6" stroke-width="2.5"/>
    <circle cx="32" cy="32" r="12" stroke-width="3"/>
    <path d="M24 36v-7h5v7m0 0V25h6v11m0 0v-5h5v5M23 37h18" stroke-width="2"/>
  </g>
  <circle cx="48" cy="16" r="4" fill="#ffffff" stroke="#d90025" stroke-width="2"/>
</svg>
